#!OML:ASF E:\emotionWalksFemale\Project 1\Capture day 1\Session 1\Female1.ASF
:FULLY-SPECIFIED
:DEGREES
884
root 8.11825 15.6778 -36.4743 199.934 -94.5588 -198.372
lowerback 6.42725 2.76482 0.691932
upperback -5.67313 3.69235 -0.527417
thorax -9.54608 1.70073 -1.47998
lowerneck -10.2735 3.19142 -1.23301
upperneck 11.7158 4.57356 -0.733484
head 5.20152 2.1149 0.309771
rclavicle 3.98563e-014 -3.18055e-015
rhumerus -41.0643 26.8919 -104.335
rradius 43.3116
rwrist 10.8159
rhand -3.34559 -53.8958
rfingers 7.12502
rthumb -157.618 457.381
lclavicle 3.98563e-014 -3.18055e-015
lhumerus -35.819 -13.297 87.2584
lradius 31.186
lwrist -22.7282
lhand -0.489994 326.905
lfingers 7.12502
lthumb 25.121 -4.72736
rfemur -22.7801 16.3271 21.1974
rtibia 58.8
rfoot -20.1656 -8.90101
rtoes -29.9256
lfemur -6.92985 -23.2794 -28.5925
ltibia 26.49
lfoot -0.450859 -22.7689
ltoes 38.8617
885
root 8.08153 15.689 -36.5325 193.734 -97.2073 -191.889
lowerback 6.31605 2.78656 0.503804
upperback -5.7406 3.7033 -0.501684
thorax -9.56803 1.71968 -1.34585
lowerneck -10.6882 4.84089 0.305587
upperneck 11.9792 6.57066 -0.708534
head 5.39677 3.15843 0.236343
rclavicle 4.18939e-014 -7.15625e-015
rhumerus -40.9823 25.6956 -103.501
rradius 43.0295
rwrist 11.181
rhand -3.61902 -53.7347
rfingers 7.12502
rthumb -157.88 457.511
lclavicle 4.18939e-014 -7.15625e-015
lhumerus -35.2249 -12.3241 87.2096
lradius 30.7796
lwrist -24.1962
lhand 0.965079 326.331
lfingers 7.12502
lthumb 26.5144 -5.50432
rfemur -22.0204 18.019 20.9834
rtibia 54.9556
rfoot -20.119 -8.22865
rtoes -27.7897
lfemur -7.41917 -23.4936 -28.2794
ltibia 27.397
lfoot -0.935818 -22.8492
ltoes 37.8864
886
root 8.05647 15.7021 -36.579 190.47 -100.397 -188.389
lowerback 6.46321 2.56464 0.613759
upperback -5.78527 3.41879 -0.513767
thorax -9.70339 1.57194 -1.38899
lowerneck -10.6307 6.55616 1.52192
upperneck 12.1803 8.72233 -0.851453
head 5.52006 4.25193 0.175077
rclavicle -7.60351e-015 2.78299e-015
rhumerus -40.8063 24.7174 -102.699
rradius 42.6904
rwrist 11.0987
rhand -4.26083 -53.8759
rfingers 7.12502
rthumb -158.497 457.298
lclavicle -7.60351e-015 2.78299e-015
lhumerus -34.6206 -11.7238 87.3986
lradius 30.5227
lwrist -25.0153
lhand -0.763777 326.85
lfingers 7.12502
lthumb 24.8586 -4.74662
rfemur -21.2387 19.2725 20.6098
rtibia 51.2151
rfoot -20.6624 -6.73418
rtoes -21.4479
lfemur -7.969 -23.1953 -27.9871
ltibia 28.2716
lfoot -1.03776 -23.4557
ltoes 36.5644
887
root 8.03223 15.7021 -36.6176 188.341 -103.818 -186.259
lowerback 6.78255 2.28521 0.981685
upperback -5.77486 3.08378 -0.589932
thorax -9.86602 1.37938 -1.64229
lowerneck -10.6229 8.14086 2.94086
upperneck 12.5997 10.6848 -1.08941
head 5.76365 5.2515 0.060858
rclavicle -3.68746e-014 1.19271e-015
rhumerus -40.8945 23.7459 -101.997
rradius 42.4047
rwrist 10.8301
rhand -5.20468 -53.9919
rfingers 7.12502
rthumb -159.403 457.081
lclavicle -3.68746e-014 1.19271e-015
lhumerus -34.2495 -11.9854 87.978
lradius 30.4073
lwrist -24.9069
lhand -0.930722 326.209
lfingers 7.12502
lthumb 24.6986 -5.36531
rfemur -20.1224 19.981 20.3834
rtibia 47.6426
rfoot -20.514 -6.17327
rtoes -19.4528
lfemur -8.29171 -22.7156 -27.7844
ltibia 29.0572
lfoot 0.0176836 -24.334
ltoes 39.0389
888
root 7.99709 15.7068 -36.6691 187.407 -106.564 -185.056
lowerback 6.5782 2.41219 1.0403
upperback -5.83922 3.25774 -0.614251
thorax -9.80527 1.45985 -1.71832
lowerneck -10.1052 9.4981 3.8317
upperneck 12.6746 12.3971 -1.036
head 5.78672 6.13426 0.0732906
rclavicle -2.62644e-014 -1.39149e-014
rhumerus -41.3288 22.8588 -101.171
rradius 42.3802
rwrist 10.2428
rhand -5.92741 -54.899
rfingers 7.12502
rthumb -160.098 456.1
lclavicle -2.62644e-014 -1.39149e-014
lhumerus -34.2673 -13.3965 89.2239
lradius 30.5535
lwrist -24.0682
lhand -1.32708 325.949
lfingers 7.12502
lthumb 24.3187 -5.57336
rfemur -19.3898 20.96 20.1521
rtibia 44.3184
rfoot -19.5089 -6.08516
rtoes -24.2866
lfemur -8.77421 -22.855 -27.4302
ltibia 29.848
lfoot 1.24673 -23.8596
ltoes 44.0973
889
root 7.96306 15.7056 -36.7059 187.083 -109.824 -184.061
lowerback 5.86162 2.14989 1.11701
upperback -5.86064 2.91581 -0.467556
thorax -9.4169 1.3012 -1.52239
lowerneck -9.7284 10.9173 4.53216
upperneck 12.5999 14.2602 -1.22185
head 5.80824 7.06321 0.0622186
rclavicle -4.90004e-014 -1.11319e-014
rhumerus -41.589 22.6908 -100.4
rradius 42.2388
rwrist 9.86301
rhand -6.7037 -57.1537
rfingers 7.12502
rthumb -160.844 453.77
lclavicle -4.90004e-014 -1.11319e-014
lhumerus -33.5678 -12.7379 89.7351
lradius 29.9771
lwrist -24.5881
lhand -1.87726 324.614
lfingers 7.12502
lthumb 23.7911 -6.83866
rfemur -19.1956 21.7259 19.7094
rtibia 41.4056
rfoot -18.2611 -5.48489
rtoes -29.1699
lfemur -9.70308 -23.0002 -27.0692
ltibia 30.5565
lfoot 1.41745 -23.4964
ltoes 44.7963
890
root 7.93426 15.6975 -36.7548 186.452 -112.44 -183.518
lowerback 6.2441 2.08612 1.01249
upperback -5.88409 2.84532 -0.258971
thorax -9.68868 1.27928 -1.25109
lowerneck -8.80328 12.0909 5.14786
upperneck 12.3346 15.8418 -1.48462
head 5.68564 7.85485 -0.022679
rclavicle -6.5922e-014 -9.34288e-015
rhumerus -42.0401 22.1145 -99.6425
rradius 41.8402
rwrist 10.1753
rhand -7.63941 -59.1463
rfingers 7.12502
rthumb -161.744 451.69
lclavicle -6.5922e-014 -9.34288e-015
lhumerus -33.5015 -12.3271 90.3315
lradius 29.9874
lwrist -24.8604
lhand -1.81606 324.422
lfingers 7.12502
lthumb 23.8498 -7.03882
rfemur -18.3988 23.0832 19.5824
rtibia 38.9502
rfoot -16.5981 -4.52341
rtoes -29.4958
lfemur -9.56638 -22.3021 -27.1251
ltibia 31.134
lfoot -0.32969 -23.2521
ltoes 40.6546
891
root 7.89879 15.6968 -36.8008 186.28 -115.152 -183.098
lowerback 6.41286 2.09083 1.01016
upperback -6.1997 2.8476 -0.320735
thorax -10.1363 1.2686 -1.33215
lowerneck -7.72078 13.1502 6.85453
upperneck 12.2957 17.2129 -2.15227
head 5.74834 8.56406 -0.386993
rclavicle -1.08338e-014 -1.47101e-014
rhumerus -42.7471 20.6941 -99.1027
rradius 41.4897
rwrist 11.133
rhand -7.99355 -60.3788
rfingers 7.12502
rthumb -162.085 450.426
lclavicle -1.08338e-014 -1.47101e-014
lhumerus -33.9749 -12.8651 91.0051
lradius 30.1269
lwrist -25.024
lhand -2.21103 324.536
lfingers 7.12502
lthumb 23.471 -6.87539
rfemur -18.086 24.1223 19.3894
rtibia 37.042
rfoot -14.9763 -3.90037
rtoes -30.3056
lfemur -9.74382 -21.9782 -27.0421
ltibia 31.4682
lfoot -1.54943 -22.5751
ltoes 37.649
892
root 7.86238 15.6999 -36.8363 186.17 -117.811 -182.757
lowerback 6.43051 2.08642 1.32924
upperback -6.39285 2.86124 -0.506982
thorax -10.3367 1.23878 -1.71757
lowerneck -6.83545 13.979 8.01891
upperneck 12.1485 18.2952 -2.40933
head 5.73617 9.13665 -0.571805
rclavicle 7.11401e-014 8.54774e-015
rhumerus -43.3052 19.4963 -98.7309
rradius 41.1576
rwrist 11.6563
rhand -9.23472 -60.3516
rfingers 7.12502
rthumb -163.28 450.348
lclavicle 7.11401e-014 8.54774e-015
lhumerus -33.984 -13.0499 91.4025
lradius 29.9223
lwrist -25.9537
lhand -2.42306 324.045
lfingers 7.12502
lthumb 23.2676 -7.34041
rfemur -17.862 24.8315 19.2417
rtibia 35.6169
rfoot -13.4344 -3.49204
rtoes -29.7674
lfemur -9.90865 -21.3883 -26.9414
ltibia 31.6854
lfoot -2.8107 -21.335
ltoes 33.6552
893
root 7.83218 15.7032 -36.8718 185.979 -120.553 -182.415
lowerback 6.33026 1.96066 1.58567
upperback -6.34156 2.71824 -0.542835
thorax -10.211 1.15295 -1.87213
lowerneck -6.40101 14.6822 8.25362
upperneck 11.8962 19.2269 -2.22709
head 5.63588 9.61962 -0.499717
rclavicle -4.94725e-014 -1.61016e-014
rhumerus -43.4708 19.0895 -98.2519
rradius 40.6661
rwrist 11.6738
rhand -11.0651 -59.1885
rfingers 7.12502
rthumb -165.042 451.372
lclavicle -4.94725e-014 -1.61016e-014
lhumerus -33.9531 -13.0033 91.9004
lradius 30.2632
lwrist -26.1081
lhand -1.64088 324.748
lfingers 7.12502
lthumb 24.0178 -6.7348
rfemur -17.5931 25.307 19.1728
rtibia 34.6892
rfoot -11.8466 -3.57801
rtoes -25.5889
lfemur -9.86954 -21.3598 -26.9327
ltibia 31.7665
lfoot -3.16955 -20.6166
ltoes 33.6253
894
root 7.80536 15.7061 -36.9137 186.093 -123.274 -182.228
lowerback 5.92129 1.80972 1.45616
upperback -6.22174 2.51966 -0.269873
thorax -9.85852 1.08646 -1.46002
lowerneck -6.2926 15.1884 8.39934
upperneck 11.9691 19.954 -2.51627
head 5.72194 9.96182 -0.530294
rclavicle 3.46507e-014 4.96962e-015
rhumerus -43.3326 18.9163 -97.2603
rradius 40.0029
rwrist 12.3685
rhand -11.4803 -58.5978
rfingers 7.12502
rthumb -165.442 451.933
lclavicle 3.46507e-014 4.96962e-015
lhumerus -33.5804 -13.7513 92.8658
lradius 30.1671
lwrist -25.3561
lhand -0.835104 324.969
lfingers 7.12502
lthumb 24.7903 -6.6176
rfemur -17.4379 25.5042 19.2001
rtibia 34.1767
rfoot -10.8553 -4.4742
rtoes -21.4947
lfemur -10.0147 -21.4032 -26.7199
ltibia 31.7785
lfoot -3.32418 -19.3839
ltoes 34.7852
